<svg width="32" height="32" viewBox="0 0 32 32" fill="none" xmlns="http://www.w3.org/2000/svg">
<path d="M16 29.3333C23.3638 29.3333 29.3333 23.3638 29.3333 16C29.3333 8.63616 23.3638 2.66663 16 2.66663C8.6362 2.66663 2.66666 8.63616 2.66666 16C2.66666 23.3638 8.6362 29.3333 16 29.3333Z" stroke="white" stroke-linecap="round" stroke-linejoin="round"/>
<path d="M14.1714 11.4286H12.2413C11.9568 11.4286 11.8146 11.4286 11.7059 11.484C11.6103 11.5326 11.5326 11.6104 11.4839 11.7059C11.4286 11.8146 11.4286 11.9568 11.4286 12.2413V14.1714C11.4286 14.4559 11.4286 14.5982 11.4839 14.7068C11.5326 14.8024 11.6103 14.8801 11.7059 14.9288C11.8146 14.9841 11.9568 14.9841 12.2413 14.9841H14.1714C14.4559 14.9841 14.5981 14.9841 14.7068 14.9288C14.8024 14.8801 14.8801 14.8024 14.9288 14.7068C14.9841 14.5982 14.9841 14.4559 14.9841 14.1714V12.2413C14.9841 11.9568 14.9841 11.8146 14.9288 11.7059C14.8801 11.6104 14.8024 11.5326 14.7068 11.484C14.5981 11.4286 14.4559 11.4286 14.1714 11.4286Z" fill="white"/>
<path d="M19.7587 11.4286H17.8286C17.5441 11.4286 17.4019 11.4286 17.2932 11.484C17.1976 11.5326 17.1199 11.6104 17.0712 11.7059C17.0159 11.8146 17.0159 11.9568 17.0159 12.2413V14.1714C17.0159 14.4559 17.0159 14.5982 17.0712 14.7068C17.1199 14.8024 17.1976 14.8801 17.2932 14.9288C17.4019 14.9841 17.5441 14.9841 17.8286 14.9841H19.7587C20.0432 14.9841 20.1854 14.9841 20.2941 14.9288C20.3897 14.8801 20.4674 14.8024 20.5161 14.7068C20.5714 14.5982 20.5714 14.4559 20.5714 14.1714V12.2413C20.5714 11.9568 20.5714 11.8146 20.5161 11.7059C20.4674 11.6104 20.3897 11.5326 20.2941 11.484C20.1854 11.4286 20.0432 11.4286 19.7587 11.4286Z" fill="white"/>
<path d="M19.7587 17.0159H17.8286C17.5441 17.0159 17.4019 17.0159 17.2932 17.0713C17.1976 17.12 17.1199 17.1977 17.0712 17.2932C17.0159 17.4019 17.0159 17.5441 17.0159 17.8286V19.7587C17.0159 20.0432 17.0159 20.1855 17.0712 20.2941C17.1199 20.3897 17.1976 20.4674 17.2932 20.5161C17.4019 20.5714 17.5441 20.5714 17.8286 20.5714H19.7587C20.0432 20.5714 20.1854 20.5714 20.2941 20.5161C20.3897 20.4674 20.4674 20.3897 20.5161 20.2941C20.5714 20.1855 20.5714 20.0432 20.5714 19.7587V17.8286C20.5714 17.5441 20.5714 17.4019 20.5161 17.2932C20.4674 17.1977 20.3897 17.12 20.2941 17.0713C20.1854 17.0159 20.0432 17.0159 19.7587 17.0159Z" fill="white"/>
<path d="M14.1714 17.0159H12.2413C11.9568 17.0159 11.8146 17.0159 11.7059 17.0713C11.6103 17.12 11.5326 17.1977 11.4839 17.2932C11.4286 17.4019 11.4286 17.5441 11.4286 17.8286V19.7587C11.4286 20.0432 11.4286 20.1855 11.4839 20.2941C11.5326 20.3897 11.6103 20.4674 11.7059 20.5161C11.8146 20.5714 11.9568 20.5714 12.2413 20.5714H14.1714C14.4559 20.5714 14.5981 20.5714 14.7068 20.5161C14.8024 20.4674 14.8801 20.3897 14.9288 20.2941C14.9841 20.1855 14.9841 20.0432 14.9841 19.7587V17.8286C14.9841 17.5441 14.9841 17.4019 14.9288 17.2932C14.8801 17.1977 14.8024 17.12 14.7068 17.0713C14.5981 17.0159 14.4559 17.0159 14.1714 17.0159Z" fill="white"/>
</svg>
