<svg width="14" height="14" viewBox="0 0 14 14" fill="none" xmlns="http://www.w3.org/2000/svg">
<g clip-path="url(#clip0_1_9321)">
<path d="M10.4999 5.83416L8.1666 3.50083M1.45825 12.5425L3.43247 12.3231C3.67367 12.2963 3.79427 12.2829 3.907 12.2464C4.007 12.2141 4.10218 12.1683 4.18994 12.1105C4.28885 12.0452 4.37465 11.9594 4.54626 11.7878L12.2499 4.08416C12.8943 3.43983 12.8943 2.39516 12.2499 1.75083C11.6056 1.1065 10.5609 1.10649 9.9166 1.75083L2.21293 9.45449C2.04132 9.62609 1.95552 9.7119 1.89029 9.81081C1.83242 9.89857 1.78668 9.99374 1.7543 10.0938C1.71781 10.2065 1.70441 10.3271 1.67761 10.5683L1.45825 12.5425Z" stroke="#D4D4D8" stroke-linecap="round" stroke-linejoin="round"/>
</g>
<defs>
<clipPath id="clip0_1_9321">
<rect width="14" height="14" fill="white"/>
</clipPath>
</defs>
</svg>
