<svg width="20" height="18" viewBox="0 0 20 18" fill="none" xmlns="http://www.w3.org/2000/svg">
<path d="M9.75288 0C4.36648 0 0 3.44286 0 7.68977C0 10.4355 1.82548 12.8447 4.57148 14.2052C4.42209 14.7204 3.61147 17.5196 3.57921 17.7396C3.57921 17.7396 3.5598 17.9048 3.6668 17.9678C3.7738 18.0308 3.89965 17.9819 3.89965 17.9819C4.20649 17.939 7.45786 15.6552 8.02062 15.2586C8.58282 15.3382 9.16171 15.3795 9.75288 15.3795C15.1393 15.3795 19.5058 11.9368 19.5058 7.68977C19.5058 3.44286 15.1393 0 9.75288 0Z" fill="#040100"/>
<path d="M4.36094 10.3728C4.05063 10.3728 3.79827 10.1318 3.79827 9.83547V6.49276H2.92033C2.61583 6.49276 2.36816 6.24556 2.36816 5.94181C2.36816 5.63807 2.61592 5.39087 2.92033 5.39087H5.80155C6.10605 5.39087 6.35372 5.63807 6.35372 5.94181C6.35372 6.24556 6.10596 6.49276 5.80155 6.49276H4.92361V9.83547C4.92361 10.1318 4.67125 10.3728 4.36094 10.3728ZM9.29478 10.3655C9.06014 10.3655 8.88065 10.2702 8.82654 10.117L8.54793 9.38758L6.83217 9.38749L6.55337 10.1174C6.49945 10.2703 6.32005 10.3655 6.08542 10.3655C5.962 10.3656 5.84001 10.3391 5.72775 10.2878C5.57264 10.2163 5.42354 10.0196 5.5944 9.48886L6.9403 5.94631C7.03511 5.67689 7.3231 5.39931 7.68958 5.39096C8.0571 5.39922 8.34509 5.67689 8.44009 5.94688L9.78542 9.48783C9.95666 10.0197 9.80755 10.2166 9.65244 10.2879C9.54016 10.3391 9.41818 10.3656 9.29478 10.3655C9.29478 10.3655 9.29468 10.3655 9.29478 10.3655ZM8.25206 8.39091L7.69005 6.79435L7.12804 8.39091H8.25206ZM10.6909 10.2908C10.3936 10.2908 10.1517 10.0593 10.1517 9.77498V5.95354C10.1517 5.64323 10.4094 5.39087 10.7261 5.39087C11.0428 5.39087 11.3005 5.64323 11.3005 5.95354V9.2592H12.4962C12.7935 9.2592 13.0354 9.49064 13.0354 9.77498C13.0354 10.0593 12.7935 10.2908 12.4962 10.2908H10.6909ZM13.8169 10.3655C13.5066 10.3655 13.2543 10.1131 13.2543 9.80283V5.95354C13.2543 5.64323 13.5066 5.39087 13.8169 5.39087C14.1272 5.39087 14.3796 5.64323 14.3796 5.95354V7.16289L15.9494 5.59305C16.0302 5.51231 16.1411 5.46786 16.2615 5.46786C16.402 5.46786 16.543 5.52844 16.6487 5.63404C16.7473 5.7325 16.8061 5.8592 16.8142 5.99077C16.8223 6.12346 16.7781 6.24509 16.69 6.33334L15.4078 7.61537L16.7928 9.45023C16.8375 9.50909 16.8701 9.57625 16.8886 9.64781C16.9072 9.71937 16.9113 9.7939 16.9008 9.86707C16.8908 9.94029 16.8663 10.0108 16.8288 10.0745C16.7914 10.1382 16.7416 10.1938 16.6825 10.2381C16.5852 10.3121 16.4663 10.352 16.344 10.3517C16.2569 10.3521 16.1708 10.3321 16.0927 10.2933C16.0147 10.2544 15.9468 10.1978 15.8946 10.1281L14.575 8.37966L14.3798 8.57491V9.80255C14.3796 9.95178 14.3203 10.0949 14.2147 10.2004C14.1092 10.3059 13.9662 10.3653 13.8169 10.3655Z" fill="#F9CF00"/>
</svg>
