<svg width="14" height="14" viewBox="0 0 14 14" fill="none" xmlns="http://www.w3.org/2000/svg">
<path d="M9.33333 3.49935V3.03268C9.33333 2.37929 9.33333 2.05259 9.20617 1.80303C9.09432 1.5835 8.91584 1.40503 8.69632 1.29317C8.44676 1.16602 8.12006 1.16602 7.46667 1.16602H6.53333C5.87994 1.16602 5.55324 1.16602 5.30368 1.29317C5.08416 1.40503 4.90568 1.5835 4.79383 1.80303C4.66667 2.05259 4.66667 2.37929 4.66667 3.03268V3.49935M5.83333 6.70768V9.62435M8.16667 6.70768V9.62435M1.75 3.49935H12.25M11.0833 3.49935V10.0327C11.0833 11.0128 11.0833 11.5028 10.8926 11.8772C10.7248 12.2065 10.4571 12.4742 10.1278 12.6419C9.75347 12.8327 9.26342 12.8327 8.28333 12.8327H5.71667C4.73657 12.8327 4.24653 12.8327 3.87218 12.6419C3.5429 12.4742 3.27518 12.2065 3.10741 11.8772C2.91667 11.5028 2.91667 11.0128 2.91667 10.0327V3.49935" stroke="#D4D4D8" stroke-linecap="round" stroke-linejoin="round"/>
</svg>
