<svg width="32" height="32" viewBox="0 0 32 32" fill="none" xmlns="http://www.w3.org/2000/svg">
<rect width="32" height="32" rx="16" fill="#7061FC"/>
<path d="M21 14.3323L17.6667 10.999M8.08331 23.9156L10.9036 23.6022C11.2482 23.564 11.4205 23.5448 11.5815 23.4927C11.7244 23.4464 11.8604 23.3811 11.9857 23.2984C12.127 23.2052 12.2496 23.0827 12.4948 22.8375L23.5 11.8323C24.4205 10.9118 24.4205 9.41942 23.5 8.49895C22.5795 7.57848 21.0871 7.57847 20.1667 8.49895L9.16142 19.5042C8.91627 19.7493 8.79369 19.8719 8.70051 20.0132C8.61784 20.1386 8.55249 20.2745 8.50624 20.4174C8.45411 20.5784 8.43497 20.7507 8.39668 21.0953L8.08331 23.9156Z" stroke="white" stroke-width="1.5" stroke-linecap="round" stroke-linejoin="round"/>
</svg>
