<svg width="18" height="18" viewBox="0 0 18 18" fill="none" xmlns="http://www.w3.org/2000/svg">
<path d="M4.08759 12.69C3.26171 11.9072 2.61006 10.9591 2.17509 9.90752C2.10081 9.73454 2.0625 9.54826 2.0625 9.36002C2.0625 9.17177 2.10081 8.98549 2.17509 8.81252C2.75274 7.4073 3.72095 6.19704 4.96509 5.32502C6.14597 4.4998 7.55989 4.07405 9.00009 4.11002C10.0363 4.084 11.064 4.30239 12.0001 4.74752M13.9201 6.03752C14.7415 6.81964 15.3904 7.76486 15.8251 8.81252C15.8994 8.98549 15.9377 9.17177 15.9377 9.36002C15.9377 9.54826 15.8994 9.73454 15.8251 9.90752C15.2474 11.3127 14.2792 12.523 13.0351 13.395C11.8542 14.2202 10.4403 14.646 9.00009 14.61C7.9639 14.636 6.93616 14.4176 6.00009 13.9725" stroke="#D4D4D8" stroke-width="1.5" stroke-linecap="round" stroke-linejoin="round"/>
<path d="M6.5325 10.2375C6.42732 9.95694 6.37395 9.65962 6.375 9.36C6.375 8.66381 6.65156 7.99613 7.14384 7.50384C7.63613 7.01156 8.30381 6.735 9 6.735C9.3 6.7335 9.597 6.7875 9.8775 6.8925M11.4675 8.4825C11.5725 8.763 11.6265 9.06 11.625 9.36C11.625 10.0562 11.3484 10.7239 10.8562 11.2162C10.3639 11.7084 9.69619 11.985 9 11.985C8.70038 11.986 8.40305 11.9327 8.1225 11.8275M2.25 15L14.25 3" stroke="#D4D4D8" stroke-width="1.5" stroke-linecap="round" stroke-linejoin="round"/>
</svg>
